<?xml version="1.0" encoding="UTF-8"?>
<svg id="Layer_2" data-name="Layer 2" xmlns="http://www.w3.org/2000/svg" viewBox="0 0 500 500">
  <defs>
    <style>
      .cls-1 {
        fill: #fff;
      }
    </style>
  </defs>
  <g id="Layer_1-2" data-name="Layer 1">
    <g>
      <g>
        <rect x=".5" y=".5" width="499" height="499"/>
        <path d="m499,1v498H1V1h498m1-1H0v500h500V0h0Z"/>
      </g>
      <g>
        <path class="cls-1" d="m124.2,293.7v-98.2h36.8c7.5,0,13.9,1.3,19,3.9s9,6.3,11.6,11,4,10.2,4,16.5-1.3,11.8-4,16.4-6.6,8.2-11.8,10.7-11.5,3.8-19.1,3.8h-26.2v-14.8h23.8c4.4,0,8-.6,10.8-1.8,2.8-1.2,4.9-3,6.3-5.4,1.4-2.4,2-5.3,2-8.8s-.7-6.5-2.1-8.9c-1.4-2.5-3.5-4.4-6.3-5.7-2.8-1.3-6.4-1.9-10.9-1.9h-16.1v83.3h-17.8v-.1Zm50.7-44.4l24.3,44.5h-19.8l-23.9-44.5h19.4Z"/>
        <path class="cls-1" d="m243.8,295.2c-7.4,0-13.8-1.5-19.1-4.6-5.4-3.1-9.5-7.5-12.3-13.1s-4.3-12.4-4.3-20.1,1.4-14.2,4.3-20c2.9-5.7,6.9-10.2,12.2-13.4,5.2-3.2,11.3-4.8,18.4-4.8,4.5,0,8.8.7,12.9,2.2,4,1.5,7.6,3.7,10.7,6.7,3.1,3,5.6,6.9,7.4,11.6,1.8,4.7,2.7,10.3,2.7,16.7v5.3h-60.4v-11.7h43.7c0-3.3-.8-6.3-2.2-8.9s-3.4-4.7-5.9-6.2-5.4-2.3-8.8-2.3-6.7.9-9.3,2.6c-2.7,1.7-4.8,3.9-6.3,6.7-1.5,2.8-2.2,5.8-2.3,9.1v10.2c0,4.3.8,8,2.3,11,1.6,3.1,3.8,5.4,6.6,7s6.1,2.4,9.9,2.4c2.5,0,4.8-.4,6.9-1.1,2-.7,3.8-1.8,5.3-3.2,1.5-1.4,2.6-3.1,3.4-5.2l16.2,1.8c-1,4.3-3,8-5.8,11.2-2.9,3.2-6.5,5.6-11,7.4-4.4,1.8-9.5,2.7-15.2,2.7Z"/>
        <path class="cls-1" d="m300,209.7c-2.7,0-5.1-.9-7.1-2.8s-3-4.1-3-6.7,1-4.8,3-6.6c2-1.8,4.3-2.8,7.1-2.8s5.2.9,7.1,2.8c2,1.9,2.9,4.1,2.9,6.7s-1,4.8-2.9,6.6c-2,1.8-4.4,2.8-7.1,2.8Zm-8.8,84v-73.6h17.4v73.6h-17.4Z"/>
        <path class="cls-1" d="m326.4,220.1h17.4v77.9c0,5.3-1,9.7-3,13.1-2,3.5-4.9,6-8.7,7.7s-8.4,2.5-13.9,2.5h-1.8c-.5,0-1.1,0-1.8-.1v-14.1c.5,0,.9.1,1.3.1h1.2c3.3,0,5.7-.8,7.1-2.4s2.2-4,2.2-7.1v-77.6Zm8.7-10.4c-2.8,0-5.2-.9-7.1-2.8-2-1.8-2.9-4.1-2.9-6.6s1-4.8,2.9-6.7c2-1.8,4.3-2.8,7.1-2.8s5.1.9,7.1,2.8c2,1.8,2.9,4.1,2.9,6.7s-1,4.8-2.9,6.6c-2,1.8-4.4,2.8-7.1,2.8Z"/>
        <path class="cls-1" d="m370.3,209.7c-2.7,0-5.1-.9-7.1-2.8s-3-4.1-3-6.7,1-4.8,3-6.6c2-1.8,4.3-2.8,7.1-2.8s5.2.9,7.1,2.8c2,1.9,2.9,4.1,2.9,6.7s-1,4.8-2.9,6.6c-1.9,1.8-4.3,2.8-7.1,2.8Zm-8.7,84v-73.6h17.4v73.6h-17.4Z"/>
      </g>
    </g>
  </g>
</svg>