<?xml version="1.0" encoding="UTF-8"?>
<svg id="Layer_2" data-name="Layer 2" xmlns="http://www.w3.org/2000/svg" viewBox="0 0 500.08 500.08">
  <defs>
    <style>
      .cls-1 {
        fill: #fff;
      }

      .cls-2 {
        opacity: .9;
      }
    </style>
  </defs>
  <g id="Layer_2-2" data-name="Layer 2">
    <g>
      <rect width="500.08" height="500.08" rx="45.49" ry="45.49"/>
      <g class="cls-2">
        <path class="cls-1" d="m143.6,402.7V97.38h114.49c23.45,0,43.16,4.08,59.11,12.22,15.95,8.15,28.03,19.55,36.23,34.21,8.2,14.66,12.3,31.73,12.3,51.21s-4.15,36.55-12.45,50.91c-8.3,14.36-20.5,25.44-36.6,33.25-16.1,7.8-35.88,11.7-59.33,11.7h-81.55v-45.92h74.09c13.72,0,24.95-1.91,33.69-5.74,8.74-3.83,15.23-9.44,19.46-16.85,4.22-7.4,6.34-16.52,6.34-27.36s-2.14-20.1-6.41-27.8c-4.28-7.7-10.79-13.57-19.53-17.59-8.75-4.02-20.03-6.04-33.84-6.04h-50.69v259.1h-55.31Zm157.73-138.35l75.58,138.35h-61.72l-74.24-138.35h60.38Z"/>
      </g>
    </g>
  </g>
</svg>